<?xml version="1.0" encoding="utf-8"?>
<!-- Svg Vector Icons : http://www.onlinewebfonts.com/icon -->
<!DOCTYPE svg PUBLIC "-//W3C//DTD SVG 1.1//EN" "http://www.w3.org/Graphics/SVG/1.1/DTD/svg11.dtd">
<svg version="1.1" xmlns="http://www.w3.org/2000/svg" xmlns:xlink="http://www.w3.org/1999/xlink" x="0px" y="0px" viewBox="0 0 1000 1000" enable-background="new 0 0 1000 1000" xml:space="preserve">
<metadata> Svg Vector Icons : http://www.onlinewebfonts.com/icon </metadata>
<g><path d="M837.3,386.1h-74.4V252.1C762.8,107.1,645,10,500,10c-145,0-262.9,98.4-262.9,243.4v132.8h-74.4c-35.9,0-64.9,29.1-64.9,64.9V925c0,35.9,29.1,65,64.9,65h674.6c35.9,0,64.9-29.1,64.9-65V451.1C902.2,415.2,873.1,386.1,837.3,386.1z M536.5,700.4v103.5c0,4.6-3.8,8.5-8.5,8.5h-55.8c-4.8,0-8.6-3.9-8.6-8.5V700.4c-26.2-13.4-44.4-40.3-44.4-71.8c0-44.6,36.2-80.8,80.8-80.8c44.6,0,80.8,36.3,80.8,80.8C580.9,660.1,562.7,687,536.5,700.4z M662,386.4H338.1l-101-0.3v-65.8l100.8,0.4l0.2-77.4c0-76.4,72.7-138.6,162-138.6c89.3,0,161.9,62.2,161.9,138.6V386.4z"/></g>
</svg>